# xmcd
#
# Track frame offsets: 
#        150
#        19119
#        42494
#        61260
#        79776
#        102332
#        119939
#        135858
#
# Disc length: 2060 seconds
#
# Revision: 0
# Processed by: cddbd v1.5PL3 Copyright (c) Steve Scherf et al.
# Submitted via: ExactAudioCopy v0.95a4
#
DISCID=68080a08
DTITLE=Habib Koite and Bamada - Baro
DYEAR=1991
DGENRE=Blues
TTITLE0=Sambara Bulaman
TTITLE1=Kanawa
TTITLE2=Batoumambe
TTITLE3=Koniya
TTITLE4=Baro
TTITLE5=Mali Sadio
TTITLE6=Toumaro
TTITLE7=Sambara Bulaman
EXTD=
EXTT0=
EXTT1=
EXTT2=
EXTT3=
EXTT4=
EXTT5=
EXTT6=
EXTT7=
PLAYORDER=
